<?xml version="1.0" encoding="UTF-8" standalone="no"?>
<!-- Created with Inkscape (http://www.inkscape.org/) -->

<svg
   width="251.2mm"
   height="215mm"
   viewBox="0 0 251.2 215"
   version="1.1"
   id="svg1"
   inkscape:version="1.4.2 (f4327f4, 2025-05-13)"
   sodipodi:docname="flag_logo_cartoon.svg"
   inkscape:export-filename="flag_logo_cartoon.png"
   inkscape:export-xdpi="96"
   inkscape:export-ydpi="96"
   xmlns:inkscape="http://www.inkscape.org/namespaces/inkscape"
   xmlns:sodipodi="http://sodipodi.sourceforge.net/DTD/sodipodi-0.dtd"
   xmlns="http://www.w3.org/2000/svg"
   xmlns:svg="http://www.w3.org/2000/svg">
  <sodipodi:namedview
     id="namedview1"
     pagecolor="#ffffff"
     bordercolor="#000000"
     borderopacity="0.25"
     inkscape:showpageshadow="2"
     inkscape:pageopacity="0.0"
     inkscape:pagecheckerboard="0"
     inkscape:deskcolor="#d1d1d1"
     inkscape:document-units="mm"
     inkscape:zoom="1.4072596"
     inkscape:cx="701.36313"
     inkscape:cy="691.05942"
     inkscape:window-width="2560"
     inkscape:window-height="1334"
     inkscape:window-x="-11"
     inkscape:window-y="-11"
     inkscape:window-maximized="1"
     inkscape:current-layer="layer1" />
  <defs
     id="defs1" />
  <g
     inkscape:label="Layer 1"
     inkscape:groupmode="layer"
     id="layer1"
     transform="translate(20.37292,-52.12292)">
    <g
       id="g1">
      <path
         id="path6-5-4-4"
         style="fill:#000000;stroke-width:0.962313"
         d="m 105.22708,52.12292 -125.6,215 h 251.2 z m 0,1.388 124.3804,212.912 h -248.7608 z"
         sodipodi:nodetypes="cccccccc" />
      <path
         style="fill:#fedb1b;fill-opacity:1"
         d="m 105.22708,71.15492 108.873,186.368 h -217.746 z m 0,44.606 -69.671,119.262 h 139.342 z"
         id="path2-6-5-8"
         sodipodi:nodetypes="cccccccc" />
      <path
         id="path6-4-7-3-9"
         style="fill:#000000;stroke-width:0.891611"
         d="m 105.22708,69.76692 -110.093,188.456 h 220.186 z m 0,1.388 108.873,186.368 h -217.746 z"
         sodipodi:nodetypes="cccccccc" />
      <path
         id="path6-4-1-6-1-6"
         style="fill:#000000;stroke-width:0.867862"
         d="m 105.24028,115.76092 -69.6842,119.262 h 139.3419 z m 0,1.388 68.4378,117.174 h -136.902 z"
         sodipodi:nodetypes="cccccccc" />
      <g
         id="g3-1-2-3"
         transform="translate(743.33664,-288.50389)"
         style="fill:#576da6;fill-opacity:1">
        <path
           style="fill:#576da6;fill-opacity:1;stroke:#335ec8;stroke-width:0;stroke-dasharray:none;stroke-opacity:1"
           d="m -638.09637,405.65281 68.4378,117.174 h -136.902 z"
           id="path3-8-3-7"
           sodipodi:nodetypes="cccc" />
      </g>
      <path
         id="path5-8"
         style="fill:#868686;fill-opacity:1"
         d="m 105.22708,53.51092 -124.3804,212.912 h 248.7604 z m 0,16.256 110.093,188.456 h -220.186 z"
         sodipodi:nodetypes="cccccccc" />
      <path
         style="fill:#000000"
         d="m 208.12513,255.23684 c 0,-0.89133 0.59619,-2.11692 1.93395,-2.11692 1.48027,0 1.91054,1.43166 1.91054,2.11692 0,0.9677 -0.60991,2.11666 -1.91054,2.11666 -1.38803,0 -1.93395,-1.30254 -1.93395,-2.11666 z m 3.52144,0 c 0,-0.94053 -0.74102,-1.76389 -1.58749,-1.76389 -0.84648,0 -1.58751,0.82336 -1.58751,1.76389 0,0.94052 0.74103,1.76388 1.58751,1.76388 0.34366,0 1.58749,-0.36627 1.58749,-1.76388 z m -2.35392,0.91215 c -0.39451,-0.43593 -0.37716,-1.48589 0.0306,-1.85496 0.40399,-0.3656 1.15069,-0.37752 1.44486,-0.0231 0.30919,0.37256 0.10742,0.50899 -0.33975,0.22973 -0.53686,-0.33527 -0.98671,3.5e-4 -0.98671,0.73615 0,0.73579 0.44985,1.07141 0.98671,0.73614 0.44717,-0.27926 0.64894,-0.14283 0.33975,0.22973 -0.30539,0.36798 -1.12074,0.33829 -1.47551,-0.0537 z M 76.26892,254.43572 c -0.98383,-0.37514 -2.13319,-1.56196 -2.7401,-2.82943 -1.36497,-2.85056 -1.3379,-7.80736 0.0582,-10.65001 1.50189,-3.05815 5.30142,-3.93015 7.74657,-1.77785 0.69814,0.61453 1.54914,2.46203 1.54914,2.46203 l -2.02078,0.51491 c 0,0 -0.22423,-0.39996 -0.4341,-0.81608 -0.93412,-1.85215 -3.1678,-1.94447 -4.46386,-0.18448 -0.56675,0.76961 -0.79475,1.39825 -1.01305,2.79314 -0.52204,3.33567 0.16126,7.03435 1.49306,8.08195 1.93478,1.5219 4.85123,0.0608 4.85123,-2.43048 v -0.71258 h -1.4993 -1.49931 v -1.94028 h 5.29167 v 7.58472 h -0.44327 c -0.35063,0 -0.52386,-0.16588 -0.8289,-0.79375 -0.21209,-0.43656 -0.45757,-0.79375 -0.5455,-0.79375 -0.0879,0 -0.40022,0.20223 -0.69397,0.4494 -1.37788,1.15942 -3.36887,1.59116 -4.80768,1.04254 z m 40.30404,-0.0728 c -1.77523,-0.60977 -3.06728,-2.46945 -3.55949,-5.12331 -0.30226,-1.62964 -0.0887,-5.87938 0.36587,-7.2794 0.46999,-1.44762 1.55082,-2.84107 2.66445,-3.43512 0.6945,-0.37047 0.98302,-0.41631 2.30736,-0.3666 1.32012,0.0496 1.62249,0.12446 2.36536,0.58599 1.82146,1.13162 2.72088,3.26705 2.86574,6.80392 0.19823,4.83979 -1.23434,8.10624 -3.9027,8.89866 -1.15264,0.3423 -1.92609,0.32135 -3.10659,-0.0841 z m 2.85915,-1.97154 c 0.49989,-0.26178 1.21124,-1.31972 1.4912,-2.21777 0.36389,-1.16731 0.5116,-4.97282 0.25233,-6.50062 -0.2495,-1.4702 -0.89803,-2.8587 -1.5605,-3.34101 -0.6657,-0.48467 -1.96719,-0.47666 -2.63237,0.0162 -0.62738,0.46486 -1.2295,1.34239 -1.4875,2.1679 -0.30416,0.97318 -0.4113,5.50263 -0.16034,6.77826 0.54328,2.76141 2.26001,4.05908 4.09718,3.09703 z m 32.7714,-13.91149 h 10.05417 v 1.94028 h -7.76111 v 4.58611 h 5.82083 v 1.94028 h -5.82083 v 5.46805 h 8.11389 v 1.94028 H 152.20351 Z M 94.52435,238.3035 h 2.29305 v 13.93472 h 7.40834 v 1.94028 l -9.70139,-1.5e-4 z m 35.27777,4.2e-4 2.27561,-4.2e-4 4.1881,12.58979 4.13474,-12.58937 h 2.10155 l -5.1336,15.87458 h -2.43516 z m -79.57293,-0.089 h 2.5802 c 0,0 3.61617,10.47236 5.34067,15.787 h -2.32155 l -1.06595,-3.35117 h -6.39365 l -0.9897,3.35117 -2.3822,2.2e-4 z m 3.82794,10.552 c -1.13839,-2.23861 -2.56487,-7.99398 -2.56487,-7.99398 0,0 -1.73475,5.35522 -2.47624,7.99398 z m 101.6054,-53.01948 14.28917,-7.96093 4.78068,8.18353 -1.67795,1.00522 c 0,0 -3.89945,-6.32605 -3.98621,-6.42104 -0.0404,-0.0442 -3.86836,2.23938 -3.86836,2.23938 l 2.70226,4.86152 -1.69922,1.09422 -2.90553,-4.64277 -4.48002,2.57036 c 0,0 4.03625,6.89573 4.04027,6.95392 l -1.98939,1.02935 z m -116.5722,-4.24515 5.05629,-8.5411 1.7459,1.07426 -3.86023,6.47951 4.191,2.32431 2.78245,-4.53977 1.82955,0.93848 -2.77707,4.72202 6.14873,3.63603 -1.14255,1.89365 z m 110.74819,-5.72623 4.65171,-9.70876 9.65288,1.77611 1.17297,2.00787 -9.57801,-1.61467 -4.62049,9.72935 z m -88.3786,-3.09938 0.6777,-1.11438 c -9.60367,-5.56391 -11.51437,-6.51442 -11.51437,-6.51442 l -0.64385,1.09174 -1.31119,-0.69282 2.56173,-4.22339 1.21643,0.62219 -0.6532,1.16431 11.49081,6.58891 0.68025,-1.1903 c 0.41656,0.19795 0.85862,0.36844 1.18281,0.69304 0,0.13188 -2.25094,4.03283 -2.44856,4.24343 -0.45906,-0.0386 -0.86109,-0.40611 -1.23856,-0.66831 z m 83.87115,-4.61789 14.08898,-8.30028 1.10044,1.88371 -14.07694,8.32127 z m -86.73195,-15.47634 -2.35686,3.93388 -1.83466,-0.94065 5.89367,-9.92732 1.79807,0.94566 -2.23343,3.88055 12.12889,7.08032 -1.17924,1.8532 z m 79.12339,2.44962 1.35383,-0.79434 0.67861,1.06692 11.1732,-6.67433 -0.61903,-1.17202 1.40899,-0.88392 2.52164,4.31652 -1.17706,0.85071 -0.75818,-1.14783 -11.30048,6.6081 0.70743,1.19896 -1.5165,0.86434 z m -9.34193,-15.99446 c 0.0437,-0.0427 14.12561,-8.23213 14.12561,-8.23213 l 1.06038,1.81516 -11.88071,7.0296 3.774,6.38397 -2.26512,1.24579 c 0,0 -4.85173,-8.20567 -4.81416,-8.24239 z m -52.65021,3.59648 0.51904,0.10381 c 0.80507,0.16101 2.26869,-0.26951 2.95006,-0.86777 2.24628,-1.97225 1.35096,-5.10921 -1.38323,-4.84649 -0.68355,0.0657 -1.15333,0.28998 -2.35005,1.12207 -3.53489,2.45781 -4.51598,2.82054 -6.19624,2.29089 -2.66453,-0.83992 -3.78007,-3.4642 -2.5562,-6.01342 0.92835,-1.93365 2.48083,-3.15841 4.69046,-3.20671 l 1.13462,-0.0248 0.0165,2.19523 -1.04685,0.0661 c -1.27901,0.0808 -1.73359,0.16175 -2.44768,0.87584 -1.91905,1.91905 -0.324,4.83549 2.13358,3.90113 0.23424,-0.0891 1.22644,-0.72625 2.20488,-1.41596 2.81613,-1.98513 4.01439,-2.37985 5.71968,-1.88411 1.14152,0.33185 2.444,1.40117 3.00763,2.46924 0.28896,0.54758 0.38417,1.03438 0.3839,1.96289 -4.3e-4,1.50741 -0.55096,2.70236 -1.80958,3.92776 -1.07355,1.04523 -2.10318,1.48924 -3.69174,1.5921 l -1.27882,0.0828 z"
         id="path7-2-8"
         sodipodi:nodetypes="sssssssssscssssssccssssccsssssccccccssssssssssssssssssssssssscccccccccccccccccccccccccccccccccccccccccccccsccccccccccccccccccccccccccccccccccccssccccccccccccccccccccccccccccscccccscsssssssccssssssssscc" />
      <g
         id="g50"
         transform="matrix(0.1946489,0,0,0.1946489,-76.82612,243.92925)">
        <path
           style="fill:#1c1c24;fill-opacity:1;stroke:#8c8c8c;stroke-width:0;stroke-dasharray:none;stroke-opacity:1"
           d="m 3960.8998,526.1816 c 0,0 -2.4506,-7.67255 -2.5753,-8.38228 -1.216,-6.92187 -0.017,-52.27552 0.1749,-58.61021 0.054,-1.79478 0.3713,-8.70174 0.4502,-10.16968 0.5035,-9.36247 1.1046,-15.24101 1.8824,-24.58784 0.1475,-1.77201 0.239,-2.86555 0.3712,-4.43577 0.1701,-2.01997 0.4214,-6.53442 1.5515,-17.7424 0.5268,-5.225 1.1006,-11.49389 1.2915,-13.96889 0.3302,-4.28199 0.6548,-6.69299 1.1344,-11.77332 0.1168,-1.2375 0.618,-6.73924 1.0145,-10.17674 0.3966,-3.4375 0.5469,-5.35542 0.8544,-8.32762 0.2129,-2.05773 1.4669,-14.21045 2.9674,-27.27295 1.5005,-13.0625 2.1915,-19.42707 2.4373,-21.72907 0.1447,-2.41295 0.884,-8.61973 0.9121,-8.86646 -0.022,-2.15415 0.8468,-7.73676 1.0997,-11.20358 0.1605,-2.2 0.9286,-10.31103 1.5911,-16.63603 0.6625,-6.325 1.3244,-13.30578 1.4835,-15.50578 0.1591,-2.2 0.4925,-5.67129 0.7479,-7.73379 0.2554,-2.0625 0.5741,-5.33566 0.7327,-7.53566 0.1586,-2.2 1.2877,-13.71978 2.498,-25.40728 1.2103,-11.6875 2.2792,-21.96378 2.2845,-22.78878 0.017,-2.63345 0.7195,-17.75737 2.6032,-17.74902 1.1738,0.005 0.5991,22.00063 0.2121,23.49055 -0.2857,1.10015 -1.2668,55.85617 -1.7885,95.92876 -0.6444,49.49249 -0.9866,69.71499 -1.0145,107.02489 -0.017,22 0.3136,45.34843 0.5022,51.67343 0.1887,6.325 0.4619,14.77221 0.4678,18.88842 0.01,7.40743 1.4412,1.75612 -1.2567,12.58822 -1.4989,6.01925 -4.3989,17.13459 -4.247,17.38038 0.1519,0.2458 0.081,0.4469 -0.1569,0.4469 -0.2382,0 -1.053,3.58007 -1.6011,5.56274 -3.4755,12.57216 -4.0668,13.63988 -7.2543,17.63548 -2.6536,3.32639 -8.875,1.20239 -8.875,1.20239 z"
           id="path49"
           transform="matrix(0.26458333,0,0,0.26458333,-101.31302,-488.95)"
           sodipodi:nodetypes="ssssssssssssssssssssssssssssssssss" />
        <path
           style="fill:#313132"
           d="m 918.08452,-74.404079 c -10.18216,-0.530699 -17.98631,-1.282552 -28.31042,-2.727429 -4.42646,-0.619492 -8.87724,-1.175158 -17.06562,-2.13059 -16.65519,-1.943353 -28.09655,-2.186978 -38.1,-0.811278 -2.69213,0.370229 -5.43057,0.668367 -6.08541,0.66253 -3.30355,-0.02945 -5.33142,-2.02649 -5.36207,-5.280548 -0.008,-0.82487 0.0652,-1.628166 0.16222,-1.785103 0.42651,-0.690117 6.45967,-2.182911 11.54985,-2.857799 9.24863,-1.226242 23.17603,-0.958591 36.24791,0.6966 4.61528,0.584396 14.73141,2.240332 20.90208,3.421516 5.77195,1.104861 17.5609,2.797161 22.88646,3.285345 18.86242,1.72908 39.18411,1.081414 57.81146,-1.84249 12.94916,-2.032609 21.41805,-4.171539 29.73302,-7.509457 1.1462,-0.460135 2.1547,-0.765926 2.2411,-0.679536 0.246,0.246009 0.384,3.725783 0.189,4.765321 -0.2469,1.316356 -1.6838,2.271513 -5.12707,3.408255 -12.52489,4.134901 -33.6561,7.566488 -56.4048,9.159816 -5.19541,0.363888 -20.06186,0.496178 -25.26771,0.224847 z m 5.82083,-9.672119 c -11.75269,-0.752657 -22.40909,-2.16437 -37.49092,-4.966634 -14.5249,-2.698785 -21.63622,-3.491757 -33.68199,-3.755823 -11.1615,-0.244681 -18.7735,0.394562 -25.53047,2.144009 -1.47381,0.381581 -2.60936,0.552676 -2.748,0.414042 -0.2263,-0.226309 1.69233,-3.956589 5.78648,-11.250286 10.76198,-19.17237 22.23855,-49.13946 28.67584,-74.87708 1.04007,-4.15839 3.53667,-15.16837 3.88819,-17.14681 0.10618,-0.59765 0.40791,-1.15353 0.742,-1.36701 1.11132,-0.71013 8.45472,-2.01988 14.05679,-2.50714 5.7669,-0.50159 25.6932,-1.70808 39.55521,-2.39497 3.1287,-0.15504 7.83166,-0.39549 10.45104,-0.53435 2.61937,-0.13886 11.07281,-0.43048 18.78541,-0.64805 7.71261,-0.21757 15.03495,-0.45865 16.27188,-0.53573 14.3807,-0.89611 29.71323,-1.29382 32.37963,-0.83989 l 1.2911,0.2198 -0.16163,1.23541 c -0.0889,0.67948 -0.33867,2.18791 -0.55506,3.35208 -0.21639,1.16417 -0.52772,4.67651 -0.69185,7.80521 -0.7002,13.3476 1.0018,31.81011 5.8258,63.19549 0.9009,5.86184 3.3449,26.901437 3.5011,30.140964 0.034,0.697856 -0.092,1.273859 -0.3282,1.507963 -0.6145,0.608124 -7.45888,3.160388 -11.62756,4.335884 -10.86112,3.062652 -26.74044,5.463691 -42.20104,6.381026 -4.03301,0.239294 -22.86071,0.305347 -26.19375,0.0919 z M 864.24493,-198.65911 c 0.002,-0.25466 0.23095,-2.30849 0.50941,-4.56406 0.27847,-2.25558 0.59095,-5.21356 0.69442,-6.57331 l 0.18812,-2.47226 1.22069,-0.5254 c 11.60151,-4.99343 28.27061,-6.84089 48.8457,-6.42509 9.99217,0.20193 16.98864,-0.0801 27.33909,-1.10218 l 6.96618,-0.68787 0.70674,0.66077 c 1.55784,1.45649 2.20036,1.60108 6.38639,1.43709 4.00592,-0.15694 6.53415,-0.64238 7.68181,-1.47498 0.3638,-0.26393 0.98706,-0.96059 1.38502,-1.54814 l 0.72356,-1.06827 3.37748,-0.19427 c 1.85761,-0.10685 6.23498,-0.40516 9.72748,-0.66291 4.73614,-0.34953 6.42754,-0.39236 6.65512,-0.16851 0.41824,0.41139 1.77511,4.47876 2.61566,7.84074 0.826,3.30377 1.252,10.34425 0.64847,10.71725 -0.1852,0.11446 -3.86201,0.30272 -8.17069,0.41837 -4.30869,0.11565 -11.76304,0.38999 -16.56523,0.60965 -4.80219,0.21965 -10.93391,0.47194 -13.62604,0.56064 -9.18691,0.30267 -24.72666,0.93196 -32.54375,1.31787 -34.29712,1.69315 -41.73773,2.24699 -49.96496,3.71912 -4.36624,0.78127 -4.80479,0.79824 -4.80067,0.18575 z m 130.83334,-6.4816 c -1.33168,-0.34653 -1.44619,-0.5299 -1.45116,-2.32365 -0.006,-2.22321 -0.7415,-7.78718 -1.36271,-10.31085 -0.68526,-2.78391 -2.13965,-6.65708 -3.89189,-10.36443 -3.67808,-7.78201 -4.80655,-14.39905 -4.26263,-24.99495 0.25877,-5.04098 0.31167,-5.56388 1.69614,-16.76353 0.49469,-4.00182 1.03171,-8.58573 1.19338,-10.18646 0.16167,-1.60073 0.40844,-3.93051 0.54839,-5.17729 0.13994,-1.24679 0.2613,-3.09226 0.26968,-4.10105 0.0175,-2.09874 0.31713,-4.07691 0.55844,-3.68624 0.0899,0.14552 0.84385,2.70536 1.67547,5.68854 2.23773,8.02719 5.54274,17.19791 6.19791,17.19791 0.50317,0 0.61868,-1.33958 0.29078,-3.37219 -0.17854,-1.10678 -1.19398,-5.01212 -2.25654,-8.67854 -1.86349,-6.43009 -3.96989,-15.23904 -4.66409,-19.5052 -0.29207,-1.79492 -0.2829,-2.10636 0.0725,-2.46174 0.36609,-0.36609 0.47204,-0.31925 1.05734,0.46739 2.8472,3.82665 4.92702,7.89556 7.81108,15.28148 1.219,3.12179 2.36124,5.76553 2.53834,5.87498 1.4573,0.90064 0.5004,-5.59945 -1.56411,-10.62493 -1.4091,-3.43009 -4.12933,-8.31703 -6.18557,-11.11249 -2.88296,-3.9194 -2.91423,-3.27831 0.32007,-6.56164 5.97064,-6.06115 10.47951,-12.0394 18.79771,-24.92378 3.9165,-6.06653 6.8191,-9.79276 10.5219,-13.50777 1.5295,-1.53457 3.0217,-2.86997 4.4778,-4.00686 4.629,-3.61422 8.8934,-5.22217 12.834,-4.84482 5.2838,0.50596 7.8136,3.30047 7.069,7.80879 -0.6279,3.80223 -2.1037,7.13431 -7.4409,16.79962 -7.928,14.35729 -16.0005,32.30878 -21.7807,48.43542 -2.4422,6.81377 -3.4053,9.8356 -5.1816,16.25823 -2.2818,8.25023 -2.578,8.91233 -7.1327,15.94321 -3.5819,5.52911 -4.9481,7.97311 -5.90092,10.55617 -0.80501,2.1824 -0.8116,2.24216 -0.64641,5.86044 0.19196,4.20477 0.13458,4.41363 -2.18681,7.96075 -2.0388,3.11531 -2.23993,4.06061 -2.02266,9.50633 0.21268,5.33056 0.58611,7.45256 1.69971,9.65859 0.61762,1.2235 0.81532,1.96983 0.81532,3.07789 0,1.42597 -0.0183,1.46207 -0.72761,1.43541 -0.40018,-0.015 -1.20385,-0.15127 -1.78593,-0.30274 z m -130.72388,-11.24543 c -0.25543,-2.04435 0.0515,-15.7363 0.41965,-18.71927 0.3587,-2.90658 0.74699,-3.50757 2.79927,-4.3327 1.87961,-0.75571 5.86748,-1.77006 6.0888,-1.54874 0.087,0.087 -0.14797,0.55947 -0.5221,1.04998 -1.44769,1.89802 -1.87602,3.30029 -1.88158,6.15994 -0.005,2.46797 0.055,2.77359 0.86446,4.41784 1.10659,2.2478 2.65426,3.62282 5.74497,5.10407 2.3293,1.11634 8.01636,2.77161 9.55029,2.7797 0.42265,0.002 0.94371,0.11488 1.15791,0.25035 0.50984,0.32243 0.28679,0.38954 -2.63841,0.79387 -5.38961,0.74497 -13.17452,2.74077 -17.95208,4.60234 -3.35798,1.30844 -3.39884,1.30216 -3.63118,-0.55738 z m 42.88221,-6.04846 c -12.08448,-0.59823 -16.69278,-1.0994 -21.82812,-2.37387 -6.37333,-1.58171 -10.07876,-3.98191 -10.99083,-7.11933 -0.54707,-1.88184 -0.22809,-3.4995 0.79467,-5.66735 0.77035,-1.63285 2.73393,-3.39541 6.38041,-5.56756 5.11256,-3.04547 11.78007,-5.63675 19.69075,-7.65268 10.42572,-2.65685 21.66492,-3.60618 37.37541,-3.15696 5.99733,0.17148 12.50589,0.79564 12.96681,1.24349 0.11203,0.10884 0.37715,3.70193 0.58915,7.98463 0.51013,10.30533 0.91593,18.1611 0.99509,19.2637 0.0415,0.57787 -0.0761,0.96633 -0.33271,1.09935 -0.40947,0.21225 -2.41367,0.42172 -12.83229,1.34119 -4.79607,0.42327 -8.72018,0.55401 -18.52084,0.61707 -6.83948,0.044 -13.26885,0.0387 -14.2875,-0.0117 z m 48.71612,-7.82104 c -0.10066,-2.52185 -0.23875,-5.59722 -0.30686,-6.83415 -0.28581,-5.19041 -0.63312,-14.12996 -0.55211,-14.21096 0.0481,-0.0481 0.708,0.0456 1.46639,0.2082 0.99777,0.21399 1.44326,0.45317 1.61179,0.86539 0.33852,0.82799 1.58397,23.82011 1.30445,24.08121 -0.0643,0.06 -0.84221,0.19159 -1.72875,0.29233 l -1.61189,0.18318 z m 11.12377,4.07991 c -0.0657,-0.10914 -0.13422,-1.62718 -0.15225,-3.37343 -0.0264,-2.55242 -0.70549,-16.89749 -0.90186,-19.05 -0.047,-0.51541 0.13324,-0.53101 6.9307,-0.59978 4.92726,-0.0498 7.08575,0.018 7.34218,0.23084 0.23112,0.19181 0.36321,0.85679 0.36321,1.82851 0,5.58467 1.64374,13.99557 3.60021,18.42206 0.3308,0.74844 0.52921,1.43305 0.4409,1.52135 -0.0883,0.0883 -0.94438,0.16157 -1.90239,0.16281 -0.95801,0.001 -4.59934,0.23712 -8.09184,0.52417 -7.22475,0.59381 -7.46579,0.60435 -7.62886,0.33347 z m -98.96021,-18.12395 c 0.10223,-1.12404 -0.0276,-2.62813 -0.40551,-4.69636 -0.9332,-5.1079 -2.22207,-15.80277 -2.80593,-23.28333 -0.0852,-1.09141 -0.32377,-3.82985 -0.53019,-6.08542 -0.35312,-3.85853 -0.58096,-6.47614 -1.19757,-13.75833 -2.00574,-23.68799 -2.19976,-37.79958 -0.91857,-66.80729 0.81465,-18.44445 0.74123,-29.54184 -0.27218,-41.14271 -0.22247,-2.54661 -0.47676,-7.78536 -0.5651,-11.64167 -0.13771,-6.01152 -0.0983,-7.25672 0.27609,-8.73125 1.46892,-5.78477 5.51707,-9.38935 10.92359,-9.72665 4.14043,-0.25831 5.77617,0.7309 6.6144,4.00009 0.43703,1.70445 0.48263,3.08558 0.46426,14.06094 -0.0237,14.1868 -0.56369,23.61866 -2.49165,43.52396 -0.9738,10.05409 -0.97434,16.23911 -0.002,19.62722 5.25371,10.94751 9.81203,-2.12528 10.7017,-8.55121 1.19738,-9.89617 1.66111,-22.47512 1.99821,-54.2031 0.30617,-28.8173 0.5342,-36.3 1.17983,-38.71622 1.00911,-3.7765 3.11447,-6.48663 6.15974,-7.92914 1.67608,-0.79394 1.9726,-0.84734 4.7048,-0.84734 2.77171,0 3.00486,0.0437 4.71244,0.88439 5.29151,2.605 6.44767,6.81363 4.89796,42.18056 -1.64956,37.64581 -2.64356,44.82074 -2.52456,52.31734 0.1271,8.00748 0.44409,11.04238 1.41591,13.5564 0.96878,2.50615 2.59844,3.90343 4.55454,3.90511 0.98423,8.4e-4 1.30193,-0.14616 2.14223,-0.9912 1.22482,-1.23173 1.9345,-3.09502 2.77609,-7.28876 0.97444,-4.85575 3.18125,-20.73598 4.10706,-29.55447 0.16042,-1.52797 0.76591,-7.12391 1.34554,-12.43542 0.57964,-5.31151 1.28948,-11.97901 1.57743,-14.81666 0.28795,-2.83766 0.76271,-7.42157 1.05501,-10.18646 0.29231,-2.7649 0.82988,-7.88458 1.1946,-11.37708 2.15829,-20.6672 2.56744,-22.67549 5.38098,-26.4121 2.8781,-3.82237 8.5579,-5.16616 12.93166,-3.05953 2.26647,1.09164 2.90763,2.20318 3.28754,5.69938 0.5409,4.97763 -0.11528,13.51579 -3.88068,50.49516 -2.84363,27.92684 -3.19911,32.07894 -3.61832,42.26342 -0.46434,11.28069 0.0188,16.22401 1.72309,17.63096 0.24193,0.19972 0.43987,0.4607 0.43987,0.57996 0,0.11926 -1.93476,1.16742 -4.29948,2.32924 -4.47217,2.19725 -7.34218,4.28767 -7.34218,5.34779 0,0.74236 0.45879,0.64678 3.76307,-0.78402 6.44382,-2.79027 12.55136,-7.47972 13.19193,-8.66086 2.50489,-4.61874 8.53188,-19.63272 14.23874,-54.47316 1.50879,-9.21121 2.15229,-13.34835 3.60095,-23.15104 1.85492,-12.55174 0.57555,-14.40514 1.60769,-16.45913 0.76454,-1.52147 2.5262,-4.72397 4.11417,-5.65458 3.58837,-2.10293 12.13181,-0.72766 15.22843,1.63424 3.23177,2.46499 3.04142,6.76041 2.45746,13.16262 -0.27049,2.96555 -0.56557,5.03098 -2.08485,14.5929 -0.74646,4.69801 -2.78047,19.47732 -3.56852,25.92916 -1.31936,10.80177 -2.2565,22.2154 -2.84585,34.66042 -0.4216,8.90277 -0.42842,31.03452 -0.0114,36.90937 1.01668,14.3215 1.19636,28.95585 0.45156,36.77708 -0.48959,5.14115 -1.67876,15.98461 -1.85704,16.93334 -0.177,0.94194 -1.14443,9.77399 -1.35334,12.35511 -0.099,1.22299 -0.30366,2.20366 -0.46938,2.24895 -0.16163,0.0442 -3.58314,0.0452 -7.60336,0.002 l -7.30948,-0.0779 -0.14617,-0.90072 c -0.21747,-1.34014 -0.9533,-2.7276 -1.73779,-3.27678 -1.6892,-1.18251 -6.37821,-2.41348 -9.19343,-2.41348 -1.72007,0 -3.10966,0.53202 -4.23553,1.62163 l -0.82772,0.80105 -3.14103,-0.32507 c -4.16378,-0.43091 -22.1376,-0.45025 -26.82124,-0.0289 -15.57468,1.40129 -29.55903,5.31041 -38.7101,10.82085 -1.22901,0.74006 -2.11667,1.02261 -4.43953,1.41313 -1.59685,0.26846 -4.01729,0.79157 -5.37874,1.16247 -1.36146,0.37091 -2.54411,0.67437 -2.62813,0.67437 -0.084,0 -0.0851,-0.74414 -0.002,-1.65364 z"
           id="path44-9"
           sodipodi:nodetypes="ssssscssssssssssssssssssssssssssscsssssssssscsscssscsssscsssssssssscscssssssssssssssssssssssssssssssssssssssssssscsscsssssssssssssssssssssssssscssssssssscsscssssssscsssscssssscssssssssssssssssssssssssssssssssssssccsssscscsssscc" />
        <path
           style="fill:#040404"
           d="m 915.57098,-70.310824 c -0.65485,-0.04434 -3.27422,-0.209448 -5.82083,-0.366911 -5.76803,-0.356649 -13.43938,-1.207023 -26.06146,-2.88893 -20.74891,-2.764816 -23.65076,-3.021856 -34.26354,-3.034996 -6.43703,-0.008 -9.20776,0.09709 -12.17083,0.461505 -7.17462,0.882363 -7.67238,0.916635 -9.82119,0.676227 -3.68041,-0.411762 -6.2691,-2.061503 -7.64404,-4.871452 -0.52015,-1.063035 -0.66047,-1.822813 -0.74004,-4.007113 -0.10884,-2.987458 0.1581,-4.248258 1.67004,-7.887973 0.89237,-2.148206 1.464,-3.220359 4.86677,-9.128123 2.40105,-4.16861 8.08212,-15.62561 10.75811,-21.69584 5.14826,-11.67835 10.5376,-26.10743 14.23056,-38.09999 4.25678,-13.82352 9.29325,-35.04247 10.79167,-45.46593 l 0.61237,-4.25989 -0.78311,-1.52928 c -0.77783,-1.51897 -0.78376,-1.56495 -0.88072,-6.82094 -0.10615,-5.75447 0.3482,-16.60912 0.79032,-18.88089 0.22498,-1.15605 0.53769,-1.70301 1.69079,-2.95729 1.66774,-1.81409 1.93769,-2.7761 1.48208,-5.28162 -0.54828,-3.01515 -2.10288,-14.48064 -2.79823,-20.6375 -2.03812,-18.04622 -3.22951,-34.48883 -3.89205,-53.71514 -0.32581,-9.45478 -0.18519,-16.27354 0.84021,-40.7411 0.55252,-13.18406 0.28911,-28.77799 -0.68829,-40.74584 -0.21986,-2.69213 -0.46712,-7.45463 -0.54946,-10.58333 -0.13408,-5.09484 -0.0924,-5.96468 0.39938,-8.33437 3.29355,-15.87037 20.88135,-16.24777 26.56911,-8.17846 0.45519,0.64579 1.03617,1.167 1.30081,1.167 1.64499,0 -1.44613,-18.10153 2.89992,-27.20453 3.55214,-7.44011 12.60793,-10.62847 19.96261,-7.02841 4.52224,2.21361 7.59729,6.48965 8.92072,12.40481 1.15045,5.14199 1.92847,16.34288 2.82745,40.70562 0.49258,13.34925 0.6474,14.97556 1.35796,14.26499 0.11959,-0.11959 0.45497,-2.89284 0.74528,-6.16277 0.55285,-6.22711 0.917,-10.07829 1.98821,-21.02659 0.35596,-3.63802 0.95285,-9.76974 1.32643,-13.62604 0.91533,-9.44841 1.93965,-17.43522 2.54501,-19.84375 1.49193,-5.93594 5.81759,-10.5158 11.11052,-11.76343 8.32952,-1.96341 15.88738,2.95975 17.85571,11.63114 0.70448,3.10356 0.6912,16.13127 -0.0633,62.06997 -0.13485,8.21119 -0.10099,10.52013 0.15661,10.67934 0.78731,0.48658 0.81373,0.36634 3.31105,-15.07015 2.22896,-13.77776 3.83243,-24.14409 5.17439,-33.45217 1.33116,-9.2332 1.92523,-11.17007 4.46963,-14.57247 2.7231,-3.64137 6.79599,-5.55348 11.82916,-5.55348 6.83021,0 12.21452,4.20458 13.89518,10.85069 0.79818,3.1564 0.59877,9.038 -0.54263,16.00452 -0.96715,5.90295 -3.74591,25.05215 -4.5027,31.02929 -2.15359,17.00906 -3.4486,35.35902 -3.44925,48.87487 -4.7e-4,9.82831 0.66029,26.89722 1.217,31.4381 0.23508,1.91749 0.67164,1.85892 2.69978,-0.36222 4.80849,-5.26606 9.81105,-12.10848 15.92045,-21.77569 9.378,-14.83929 17.7336,-23.09223 26.286,-25.96317 3.8939,-1.30716 8.7147,-1.15021 12.0245,0.39149 2.1618,1.00689 4.5794,3.30713 5.3692,5.10845 0.7395,1.68642 0.9894,5.50034 0.5199,7.93381 -0.4425,2.29351 -1.9006,5.8487 -3.9287,9.57923 -15.1841,27.93002 -24.0824,48.60701 -30.914,71.83438 -2.419,8.22482 -2.9602,9.54357 -5.4623,13.31058 -3.5832,5.39455 -6.193,9.55537 -7.0021,11.16338 -1.2982,2.58023 -1.4239,3.34377 -1.0721,6.51578 0.4385,3.95416 0.1773,4.93739 -2.3024,8.66576 -2.50709,3.76944 -2.64046,4.26976 -2.2892,8.58744 0.26362,3.2404 0.3334,3.51764 1.46592,5.82398 0.65398,1.33189 1.33208,2.99648 1.50678,3.69909 0.4222,1.69804 0.1785,4.43134 -0.6875,7.70818 -2.05176,7.76403 -2.22682,21.2387 -0.5125,39.44902 0.6167,6.55122 1.1443,10.73197 3.554,28.1622 1.4999,10.84942 2.8437,21.14466 3.4363,26.32604 0.283,2.47386 0.8863,7.653076 1.3407,11.509378 1.2273,10.415008 1.0255,11.506616 -2.5752,13.928946 -6.50195,4.374191 -37.39978,10.082365 -62.08605,11.470001 -4.18323,0.235142 -25.09589,0.303755 -28.21492,0.09257 z m 27.78125,-4.318045 c 22.7487,-1.593328 43.87991,-5.024915 56.4048,-9.159816 3.44327,-1.136742 4.88017,-2.091899 5.12707,-3.408255 0.195,-1.039538 0.057,-4.519312 -0.189,-4.765321 -0.086,-0.08639 -1.0949,0.219401 -2.2411,0.679536 -8.31497,3.337918 -16.78386,5.476848 -29.73302,7.509457 -18.62735,2.923904 -38.94904,3.57157 -57.81146,1.84249 -5.32556,-0.488184 -17.11451,-2.180484 -22.88646,-3.285345 -6.17067,-1.181184 -16.2868,-2.83712 -20.90208,-3.421516 -13.07188,-1.655191 -26.99928,-1.922842 -36.24791,-0.6966 -5.09018,0.674888 -11.12334,2.167682 -11.54985,2.857799 -0.097,0.156937 -0.16999,0.960233 -0.16222,1.785103 0.0306,3.254058 2.05852,5.251099 5.36207,5.280548 0.65484,0.0058 3.39328,-0.292301 6.08541,-0.66253 10.00345,-1.3757 21.44481,-1.132075 38.1,0.811278 8.18838,0.955432 12.63916,1.511098 17.06562,2.13059 10.32411,1.444877 18.12826,2.19673 28.31042,2.727429 5.20585,0.271331 20.0723,0.139041 25.26771,-0.224847 z m 6.74687,-9.539221 c 15.4606,-0.917335 31.33992,-3.318374 42.20104,-6.381026 4.16868,-1.175496 11.01306,-3.72776 11.62756,-4.335884 0.2365,-0.234104 0.3619,-0.810107 0.3282,-1.507963 -0.1562,-3.239527 -2.6002,-24.279127 -3.5011,-30.140957 -4.824,-31.38539 -6.526,-49.8479 -5.8258,-63.1955 0.16413,-3.1287 0.47546,-6.64104 0.69185,-7.80521 0.21639,-1.16417 0.46617,-2.6726 0.55506,-3.35208 l 0.16163,-1.23541 -1.2911,-0.2198 c -2.6664,-0.45393 -17.99893,-0.0562 -32.37963,0.83989 -1.23693,0.0771 -8.55927,0.31816 -16.27188,0.53573 -7.7126,0.21757 -16.16604,0.50919 -18.78541,0.64805 -2.61938,0.13886 -7.32234,0.37931 -10.45104,0.53435 -13.86201,0.68689 -33.78831,1.89338 -39.55521,2.39497 -5.60207,0.48726 -12.94547,1.79701 -14.05679,2.50714 -0.33409,0.21348 -0.63582,0.76936 -0.742,1.36701 -0.35152,1.97844 -2.84812,12.98842 -3.88819,17.14681 -6.43729,25.73762 -17.91386,55.70471 -28.67584,74.87709 -4.09415,7.29369 -6.01278,11.02397 -5.78648,11.250279 0.13864,0.138634 1.27419,-0.03246 2.748,-0.414042 6.75697,-1.749447 14.36897,-2.38869 25.53047,-2.144009 12.04577,0.264066 19.15709,1.057038 33.68199,3.755823 15.08183,2.802264 25.73823,4.213977 37.49092,4.966634 3.33304,0.213452 22.16074,0.147399 26.19375,-0.0919 z m -81.0535,-114.67677 c 8.22723,-1.47213 15.66784,-2.02597 49.96496,-3.71912 7.81709,-0.38591 23.35684,-1.0152 32.54375,-1.31787 2.69213,-0.0887 8.82385,-0.34099 13.62604,-0.56064 4.80219,-0.21966 12.25654,-0.494 16.56523,-0.60965 4.30868,-0.11565 7.98549,-0.30391 8.17069,-0.41837 0.60353,-0.373 0.17753,-7.41348 -0.64847,-10.71725 -0.84055,-3.36198 -2.19742,-7.42935 -2.61566,-7.84074 -0.22758,-0.22385 -1.91898,-0.18102 -6.65512,0.16851 -3.4925,0.25775 -7.86987,0.55606 -9.72748,0.66291 l -3.37748,0.19427 -0.72356,1.06827 c -0.39796,0.58755 -1.02122,1.28421 -1.38502,1.54814 -1.14766,0.8326 -3.67589,1.31804 -7.68181,1.47498 -4.18603,0.16399 -4.82855,0.0194 -6.38639,-1.43709 l -0.70674,-0.66077 -6.96618,0.68787 c -10.35045,1.02204 -17.34692,1.30411 -27.33909,1.10218 -17.89012,-0.36154 -34.05863,1.37777 -44.18541,4.75321 -1.89178,0.63056 -3.9889,1.38291 -4.66029,1.67188 l -1.22069,0.5254 -0.18812,2.47226 c -0.10347,1.35975 -0.41595,4.31773 -0.69442,6.57331 -0.27846,2.25557 -0.50769,4.3094 -0.50941,4.56406 -0.004,0.61249 0.43443,0.59552 4.80067,-0.18575 z m 128.54621,-7.42857 c 0,-1.10806 -0.1977,-1.85439 -0.81532,-3.07789 -1.1136,-2.20603 -1.48703,-4.32803 -1.69971,-9.65859 -0.21727,-5.44572 -0.0161,-6.39102 2.02266,-9.50633 2.32139,-3.54712 2.37877,-3.75598 2.18681,-7.96075 -0.16519,-3.61828 -0.1586,-3.67804 0.64641,-5.86044 0.95284,-2.58306 2.31894,-5.02706 5.90084,-10.55617 4.5548,-7.03088 4.851,-7.69298 7.1328,-15.94321 1.7763,-6.42263 2.7394,-9.44446 5.1816,-16.25823 5.7802,-16.12664 13.8527,-34.07813 21.7807,-48.43542 5.3371,-9.66531 6.813,-12.99739 7.4409,-16.79962 0.7445,-4.50832 -1.7852,-7.30283 -7.069,-7.80879 -5.1802,-0.49605 -10.9198,2.43864 -17.3118,8.85168 -3.7028,3.71501 -6.6054,7.44124 -10.522,13.50777 -8.3181,12.88438 -12.82699,18.86263 -18.79763,24.92378 -3.2343,3.28333 -3.20303,2.64224 -0.32007,6.56164 2.05624,2.79546 4.77647,7.6824 6.18557,11.11249 2.06453,5.02548 3.02143,11.52557 1.56413,10.62493 -0.1771,-0.10945 -1.31936,-2.75319 -2.53836,-5.87498 -2.88406,-7.38592 -4.96388,-11.45483 -7.81108,-15.28148 -0.5853,-0.78664 -0.69125,-0.83348 -1.05734,-0.46739 -0.35538,0.35538 -0.36455,0.66682 -0.0725,2.46174 0.6942,4.26616 2.8006,13.07511 4.66409,19.5052 1.06256,3.66642 2.078,7.57176 2.25654,8.67854 0.3279,2.03261 0.21239,3.37219 -0.29078,3.37219 -0.65517,0 -3.96018,-9.17072 -6.19791,-17.19791 -0.83162,-2.98318 -1.58558,-5.54302 -1.67547,-5.68854 -0.24131,-0.39067 -0.54099,1.5875 -0.55844,3.68624 -0.008,1.00879 -0.12974,2.85426 -0.26968,4.10105 -0.13995,1.24678 -0.38672,3.57656 -0.54839,5.17729 -0.16167,1.60073 -0.69869,6.18464 -1.19338,10.18646 -1.38447,11.19965 -1.43737,11.72255 -1.69614,16.76353 -0.54392,10.5959 0.58455,17.21294 4.26263,24.99495 1.75224,3.70735 3.20663,7.58052 3.89189,10.36443 0.62121,2.52367 1.35655,8.08764 1.36271,10.31085 0.002,0.80471 0.0915,1.59477 0.19844,1.75568 0.2215,0.33338 1.95451,0.82997 3.03865,0.87071 0.70931,0.0267 0.72761,-0.009 0.72761,-1.43541 z m -129.60624,-9.55538 c 4.77756,-1.86157 12.56247,-3.85737 17.95208,-4.60234 2.9252,-0.40433 3.14825,-0.47144 2.63841,-0.79387 -0.2142,-0.13547 -0.73526,-0.24812 -1.15791,-0.25035 -1.53393,-0.008 -7.22099,-1.66336 -9.55029,-2.7797 -3.09071,-1.48125 -4.63838,-2.85627 -5.74497,-5.10407 -0.80946,-1.64425 -0.86926,-1.94987 -0.86446,-4.41784 0.006,-2.85965 0.43389,-4.26192 1.88158,-6.15994 0.37413,-0.49051 0.60908,-0.963 0.5221,-1.04998 -0.22132,-0.22132 -4.20919,0.79303 -6.0888,1.54874 -2.05228,0.82513 -2.44057,1.42612 -2.79927,4.3327 -0.36814,2.98297 -0.67508,16.67492 -0.41965,18.71927 0.23234,1.85954 0.2732,1.86582 3.63118,0.55738 z m 94.3895,-5.74464 c 0.49646,-0.16657 1.15215,-0.64063 1.45709,-1.05347 0.52997,-0.7175 0.55219,-1.02797 0.50337,-7.03582 -0.0826,-10.1634 -1.05777,-23.39553 -1.80868,-24.54156 -0.88202,-1.34613 -8.75406,-2.88233 -9.5926,-1.87196 -1.5063,1.815 5.86728,2.86795 7.1386,4.12345 0.38981,0.38497 0.54457,2.22638 1.17831,14.02033 0.60894,11.3322 0.6705,13.61367 0.37228,13.79798 -0.19652,0.12145 -1.41478,0.41429 -2.70726,0.65075 -3.19956,0.58537 -5.2452,1.36908 -5.2452,2.00951 0,0.4122 0.23544,0.50989 1.38906,0.5763 1.83922,0.10589 6.18107,-0.29506 7.31503,-0.67551 z m -22.33013,-1.46659 c 10.41862,-0.91947 12.42282,-1.12894 12.83229,-1.34119 0.25664,-0.13302 0.3742,-0.52148 0.33271,-1.09935 -0.0792,-1.1026 -0.48496,-8.95837 -0.99509,-19.2637 -0.212,-4.2827 -0.47712,-7.87579 -0.58915,-7.98463 -0.46092,-0.44785 -6.96948,-1.07201 -12.96681,-1.24349 -19.1431,-0.54737 -32.11334,1.01005 -45.00073,5.40353 -6.8164,2.3238 -13.20958,5.60047 -16.29805,8.35317 -3.73445,3.32847 -4.27364,8.03863 -1.26261,11.02982 1.81427,1.80231 5.03361,3.31581 9.31098,4.37736 5.13534,1.27447 9.74364,1.77564 21.82812,2.37387 1.01865,0.0504 7.44802,0.0557 14.2875,0.0117 9.80066,-0.0631 13.72477,-0.1938 18.52084,-0.61707 z m 19.43144,-3.10596 c 0.27952,-0.2611 -0.96593,-23.25322 -1.30445,-24.08121 -0.16853,-0.41222 -0.61402,-0.6514 -1.61179,-0.86539 -0.75839,-0.16264 -1.41826,-0.25633 -1.46639,-0.2082 -0.081,0.081 0.2663,9.02055 0.55211,14.21096 0.0681,1.23693 0.2062,4.3123 0.30686,6.83415 l 0.18302,4.5852 1.61189,-0.18318 c 0.88654,-0.10074 1.66447,-0.23229 1.72875,-0.29233 z m 15.22897,-0.36325 c 3.4925,-0.28705 7.13383,-0.52292 8.09184,-0.52417 0.95801,-0.001 1.81409,-0.0745 1.90239,-0.16281 0.0883,-0.0883 -0.1101,-0.77291 -0.4409,-1.52135 -1.95647,-4.42649 -3.60021,-12.83739 -3.60021,-18.42206 0,-0.97172 -0.13209,-1.6367 -0.36321,-1.82851 -0.25643,-0.21282 -2.41492,-0.28068 -7.34218,-0.23084 -6.79746,0.0688 -6.97772,0.0844 -6.9307,0.59978 0.19637,2.15251 0.87549,16.49758 0.90186,19.05 0.018,1.74625 0.0865,3.26429 0.15225,3.37343 0.16307,0.27088 0.40411,0.26034 7.62886,-0.33347 z m -103.95858,-16.81121 c 1.36145,-0.3709 3.78189,-0.89401 5.37874,-1.16247 2.32286,-0.39052 3.21052,-0.67307 4.43953,-1.41313 9.15107,-5.51044 23.13542,-9.41956 38.7101,-10.82085 4.68364,-0.4214 22.65746,-0.40206 26.82124,0.0289 l 3.14103,0.32507 0.82772,-0.80105 c 1.12587,-1.08961 2.51546,-1.62163 4.23553,-1.62163 2.81522,0 7.50423,1.23097 9.19343,2.41348 0.78449,0.54918 1.52032,1.93664 1.73779,3.27678 l 0.14617,0.90072 7.30948,0.0779 c 4.02022,0.0429 7.44173,0.0418 7.60336,-0.002 0.16572,-0.0453 0.3704,-1.02596 0.46938,-2.24895 0.20891,-2.58112 1.17634,-11.41317 1.35334,-12.35511 0.17828,-0.94873 1.36745,-11.79219 1.85704,-16.93334 0.7448,-7.82123 0.56512,-22.45558 -0.45156,-36.77708 -0.41706,-5.87485 -0.41024,-28.0066 0.0114,-36.90937 0.58935,-12.44502 1.52649,-23.85865 2.84585,-34.66042 0.78805,-6.45184 2.82206,-21.23115 3.56852,-25.92916 0.30058,-1.89178 0.82664,-5.22553 1.16902,-7.40834 1.6478,-10.50533 1.39829,-14.77147 -1.05974,-18.11998 -1.77254,-2.41469 -4.11862,-3.64861 -7.41125,-3.89794 -3.41143,-0.25832 -6.4885,0.92644 -8.93822,3.44146 -2.61949,2.68933 -2.82965,3.46293 -5.08271,18.70875 -3.07962,20.83894 -6.06144,38.62299 -8.4758,50.55109 -3.23118,15.96357 -6.21729,25.64542 -8.82601,28.61659 -0.88653,1.0097 -7.28599,4.32711 -13.72981,7.11738 -3.30428,1.4308 -3.76307,1.52638 -3.76307,0.78402 0,-1.06012 2.87001,-3.15054 7.34218,-5.34779 2.36472,-1.16182 4.29948,-2.20998 4.29948,-2.32924 0,-0.11926 -0.19794,-0.38024 -0.43987,-0.57996 -1.70431,-1.40695 -2.18743,-6.35027 -1.72309,-17.63096 0.41921,-10.18448 0.77469,-14.33658 3.61832,-42.26342 3.7654,-36.97937 4.42158,-45.51753 3.88068,-50.49516 -0.37991,-3.4962 -1.02107,-4.60774 -3.28754,-5.69938 -4.37376,-2.10663 -10.05356,-0.76284 -12.93166,3.05953 -2.81354,3.73661 -3.22269,5.7449 -5.38098,26.4121 -0.36472,3.4925 -0.90229,8.61218 -1.1946,11.37708 -0.2923,2.76489 -0.76706,7.3488 -1.05501,10.18646 -0.28795,2.83765 -0.99779,9.50515 -1.57743,14.81666 -0.57963,5.31151 -1.18512,10.90745 -1.34554,12.43542 -0.92581,8.81849 -3.13262,24.69872 -4.10706,29.55447 -0.84159,4.19374 -1.55127,6.05703 -2.77609,7.28876 -0.8403,0.84504 -1.158,0.99204 -2.14223,0.9912 -1.9561,-0.002 -3.58576,-1.39896 -4.55454,-3.90511 -0.97182,-2.51402 -1.28881,-5.54892 -1.41591,-13.5564 -0.119,-7.4966 0.12665,-14.74169 1.77621,-52.3875 1.1708,-26.71943 1.0981,-33.23171 -0.42289,-37.88246 -0.66873,-2.04478 -1.72404,-3.24203 -3.72672,-4.22794 -1.70758,-0.84064 -1.94073,-0.88439 -4.71244,-0.88439 -2.7322,0 -3.02872,0.0534 -4.7048,0.84734 -3.04527,1.44251 -5.15063,4.15264 -6.15974,7.92914 -0.64563,2.41622 -0.87366,9.89892 -1.17983,38.71622 -0.36212,34.08315 -0.74773,62.99025 -5.89966,66.78181 -0.92981,0.68429 -2.44629,0.67405 -3.79453,-0.0256 -1.1182,-0.5803 -2.58355,-2.53129 -3.00572,-4.00188 -0.97264,-3.38811 -0.9721,-9.57313 0.002,-19.62722 1.92796,-19.9053 2.46791,-29.33716 2.49165,-43.52396 0.0184,-10.97536 -0.0272,-12.35649 -0.46426,-14.06094 -0.83823,-3.26919 -2.47397,-4.2584 -6.6144,-4.00009 -5.40652,0.3373 -9.45467,3.94188 -10.92359,9.72665 -0.37442,1.47453 -0.4138,2.71973 -0.27609,8.73125 0.0883,3.85631 0.34263,9.09506 0.5651,11.64167 1.01341,11.60087 1.08683,22.69826 0.27218,41.14271 -1.28119,29.00771 -1.08717,43.1193 0.91857,66.80729 0.61661,7.28219 0.84445,9.8998 1.19757,13.75833 0.20642,2.25557 0.445,4.99401 0.53019,6.08542 0.58386,7.48056 1.87273,18.17543 2.80593,23.28333 0.37786,2.06823 0.50774,3.57232 0.40551,4.69636 -0.0827,0.9095 -0.0816,1.65364 0.002,1.65364 0.084,0 1.26667,-0.30346 2.62813,-0.67437 z m 11.86962,-104.86736 c 0.60834,-1.17641 0.85196,-2.56808 1.60269,-9.15514 0.90051,-7.90122 1.1019,-17.49902 0.69399,-33.07292 -0.16771,-6.40292 -0.36741,-14.61823 -0.44377,-18.25625 -0.0764,-3.63802 -0.25455,-7.80521 -0.39597,-9.26041 -0.2455,-2.52629 -0.94631,-4.84075 -1.23613,-5.36772 -0.0949,-0.17254 -0.35159,2.48704 -0.36847,6.43928 -0.0568,13.29166 -0.86769,29.70894 -1.97758,40.112 -1.09066,10.2228 -1.24933,19.20918 -1.18603,23.28026 0.0545,3.50738 0.54606,4.27869 1.53949,5.32003 0.88335,0.92596 1.27721,0.91726 1.77178,-0.0391 z m 66.19699,-1.24992 c 0,0 1.70648,-2.58452 3.12458,-8.2762 l 1.08698,-4.36267 -0.17529,-7.70177 c -0.096,-4.2203 -0.14233,-12.67354 -0.0841,-18.78542 0.22385,-23.47947 0.40855,-36.30315 0.64585,-44.84032 0.14249,-5.12626 0.14773,-8.95545 0.0124,-9.09075 -0.1353,-0.1353 -0.30116,0.53062 -0.39376,1.58095 -0.088,0.99809 -0.28129,3.00533 -0.42954,4.46054 -0.46704,4.58429 -1.32004,13.28483 -1.86766,19.05 -0.81105,8.53859 -0.9841,10.22639 -1.55986,15.21354 -1.11632,9.66943 -2.25335,21.64161 -2.95256,31.08854 -0.35839,4.84218 -0.48979,17.92585 -0.019,19.68111 0.34174,1.27415 0.73572,2.17091 1.37371,2.17091 0.26782,0 0.86089,-0.0419 0.86089,-0.0419 z m -33.34051,-1.33164 c 0.99512,-2.38167 2.2316,-10.06201 2.42136,-15.04025 0.11026,-2.89264 0.008,-4.59226 -0.73683,-12.30312 -0.72979,-7.55037 -1.41111,-23.12712 -1.74748,-39.95209 -0.0917,-4.5839 -0.19161,-8.75109 -0.22215,-9.26041 -0.0803,-1.34076 -0.0818,-7.9375 -0.37059,-7.9375 -0.12355,0 -0.23017,0.6111 -0.31466,2.46649 -0.0845,1.8554 -0.3417,5.82819 -0.49387,7.71997 -0.15217,1.89177 -0.40492,6.65427 -0.56167,10.58333 -0.31572,7.91379 -0.55367,12.90567 -1.20444,25.26771 -0.568,10.78967 -0.66168,31.34069 -0.15499,33.99895 0.47184,2.47541 1.23186,4.66436 1.78391,5.17772 0.742,0.69001 1.15277,0.35295 1.60141,-0.7208 z"
           id="path43-7"
           sodipodi:nodetypes="ssssssssssssscssssssssssssssssssssssssssssssssssssssssssssssssssssssssssssssssssssssssssssssssssssscssssssssssssssssssssssssssscsssscsssscsscsssssssssssssssssssssssssssscsssssscsssssssssscsssssssssssssssssssssssssssssssssssssscssscssssssssscsssscsssscscssssssssssssssssssssssssssssssscsssssssssssscsssssssssssssccsssssssssssssscscssssssssssssscssssssssss" />
        <path
           style="fill:#dedbe3;fill-opacity:1;stroke:#8c8c8c;stroke-width:0;stroke-dasharray:none;stroke-opacity:1"
           d="m 3991.5625,1012.9862 c -1.6463,-0.1241 -2.9819,-0.4014 -3.5257,-0.7321 -0.524,-0.3187 -0.7554,-1.0293 -0.5438,-1.6703 0.4446,-1.3474 3.4392,-2.9704 8.2492,-4.471 3.1318,-0.9771 6.6449,-1.7915 13.1953,-3.059 3.1281,-0.6053 7.4192,-1.6388 8.2081,-1.9769 0.5703,-0.2444 0.6961,-0.5892 0.8539,-2.33991 0.3362,-3.7311 -0.074,-14.68578 -1.6899,-45.17449 -2.3664,-44.63669 -3.1264,-54.70483 -4.321,-57.24637 -0.1817,-0.3865 -0.4924,-0.74624 -0.9132,-1.05738 -1.8265,-1.35035 -3.7963,-2.15382 -12.3037,-5.01877 -7.4324,-2.50292 -10.1184,-3.60197 -12.3342,-5.04702 -2.4115,-1.57262 -3.0656,-2.92202 -2.1563,-4.44849 0.8318,-1.39626 2.5281,-1.81427 6.9063,-1.70182 8.3192,0.21367 20.6304,2.99417 26.4375,5.97096 3.1148,1.59669 3.429,2.04778 4.2379,6.08384 2.1538,10.74616 4.4746,41.66123 5.3884,71.77755 0.2253,7.42565 0.3716,17.85353 0.3709,26.4375 0,12.9702 -0.1761,14.6761 -1.733,16.893 -1.0877,1.5489 -3.2759,3.2816 -5.1104,4.0467 -3.923,1.6361 -21.7036,3.3 -29.2163,2.734 z"
           id="path46"
           transform="matrix(0.26458333,0,0,0.26458333,-101.31302,-488.95)" />
        <path
           style="fill:#1c1c24;fill-opacity:1;stroke:#8c8c8c;stroke-width:0;stroke-dasharray:none;stroke-opacity:1"
           d="m 3712.0919,532.16244 c -2.9965,-3.11307 -4.5574,-5.43545 -5.3099,-11.59605 -0.2279,-1.86574 -0.2486,-2.35202 -0.4402,-5.85373 -0.3502,-6.40085 -0.7226,-29.88681 1.1451,-54.39327 0.6188,-8.11929 0.7667,-9.92525 1.0988,-13.80456 0.1763,-2.0596 0.599,-6.7972 0.9588,-10.49144 0.3807,-3.90886 0.6101,-6.18612 0.7669,-7.70496 0.059,-0.56841 0.2447,-2.30624 0.3993,-3.81874 0.1546,-1.5125 0.4081,-3.57328 0.4862,-4.67328 0.078,-1.1 0.2919,-2.93842 0.3328,-3.37431 0.1614,-1.7186 3.8063,-46.58182 3.8054,-51.64242 -3e-4,-1.1101 0.2042,-4.19451 0.3688,-6.80701 0.3344,-5.30764 0.6798,-12.99925 0.9921,-21.24898 0.1145,-3.025 0.4414,-10.42774 0.6095,-16.48081 0.1676,-6.03451 0.3067,-8.88193 0.362,-12.32375 0.4172,-25.96918 0.3558,-49.88554 0.9257,-54.6218 -0.098,-1.98982 -0.2478,-4.79749 0.625,-5.86491 2.5847,4.00088 3.2163,9.13696 4.1431,13.85547 1.6876,9.58842 1.8284,17.2221 2.9558,65.06249 0.1313,5.56931 0.3386,14.68628 0.4945,20.25393 1.3222,47.21915 1.395,58.85209 1.4189,76.36576 0.041,30.11069 -1.097,54.93337 -3.724,77.37423 -0.4292,3.66601 -0.5053,4.34058 -0.6041,5.17702 -0.09,0.76545 -0.1223,0.81073 -0.3256,2.71687 -0.4156,3.89693 -0.3901,2.41655 -0.3965,3.21152 -0.016,1.96902 -0.4607,3.36469 -0.4831,3.7203 -0.1316,2.09087 -0.2828,2.05146 -0.5112,3.6259 -0.2292,1.5804 0.039,0.006 -0.3601,2.31158 -0.3568,2.05921 -0.3819,2.26446 -0.8955,4.70182 -1.0946,5.19465 -2.6893,8.04475 -4.2856,8.77209 -0.9992,0.45526 -1.6208,0.59719 -4.5529,-2.44896 z"
           id="path47"
           transform="matrix(0.26458333,0,0,0.26458333,-101.31302,-488.95)"
           sodipodi:nodetypes="sssssssssssssssscssssssssssssss" />
      </g>
      <g
         id="g8-9-2"
         transform="translate(294.56383,145.29272)">
        <path
           style="fill:#edf3f3"
           d="m -246.88712,86.156633 c -0.24255,-0.242555 -0.10312,-1.07691 0.32281,-1.931642 0.91309,-1.832318 2.30707,-2.057522 5.38291,-0.869631 0.91404,0.353003 1.85503,0.618377 2.09108,0.58972 0.23606,-0.02866 0.59579,-0.276068 0.79941,-0.549801 0.35725,-0.480251 0.37207,-0.717597 0.42283,-6.771354 l 0.0526,-6.273658 -1.64235,0.08591 c -1.87626,0.09814 -2.93765,0.478406 -3.75632,1.345782 -0.63584,0.67368 -1.2329,0.765428 -1.04559,0.160674 0.73598,-2.37617 2.37435,-3.609077 5.03867,-3.791693 l 1.38857,-0.09517 v -1.385906 -1.385906 h 1.03975 c 2.18602,0 4.9468,-1.352838 6.18159,-3.029102 l 0.60717,-0.824241 0.70747,0.360924 c 2.52069,1.285964 4.34547,1.325092 4.97553,0.10669 0.27822,-0.538029 0.77599,-0.670561 0.77599,-0.206611 0,0.759526 -0.46363,1.719458 -1.08901,2.254758 -1.26058,1.079013 -2.86512,1.257016 -5.0405,0.559178 -0.39457,-0.126574 -0.39688,-0.116479 -0.39688,1.736656 v 1.86397 h 2.31193 c 1.77565,0 2.29292,0.05114 2.22998,0.220486 -0.0451,0.121267 -0.18762,0.637205 -0.3168,1.146527 l -0.23486,0.926042 h -1.98195 -1.98195 l -0.0573,4.542014 c -0.0546,4.327183 -0.0765,4.581112 -0.46446,5.368647 -0.87354,1.773419 -2.25723,2.574023 -7.87094,4.554144 l -3.51563,1.240065 -1.54731,-0.553487 c -1.8012,-0.644306 -2.37591,-0.600886 -2.67913,0.20241 -0.18874,0.50005 -0.45754,0.653424 -0.70735,0.403614 z m 12.31265,-4.306189 c 0.41743,-0.384776 0.94655,-1.11449 1.17582,-1.621586 0.41228,-0.911885 0.41746,-0.998683 0.47185,-7.916501 l 0.055,-6.994507 -1.05411,0.265531 -1.05412,0.265532 -0.0608,7.169948 c -0.0694,8.187061 -0.0348,7.98576 -1.67673,9.745327 l -0.85033,0.911247 1.11724,-0.562699 c 0.61447,-0.309485 1.45876,-0.877516 1.8762,-1.262292 z m 21.89048,0.07276 c -0.0621,-0.161743 -0.0507,-0.347337 0.0252,-0.41243 0.0759,-0.06509 0.62768,-0.488032 1.22609,-0.939862 1.36549,-1.031014 2.30189,-2.115623 2.55452,-2.958846 0.45013,-1.502408 -0.49196,-2.929096 -1.81684,-2.751392 -0.38021,0.051 -0.78526,-0.0022 -0.95354,-0.125265 -0.26307,-0.19236 -0.24176,-0.248325 0.21139,-0.55526 0.37507,-0.254039 0.80846,-0.341338 1.69458,-0.341338 h 1.19062 v -0.575854 c 0,-0.404728 -0.17035,-0.760362 -0.57326,-1.196739 -0.68384,-0.740645 -1.57752,-0.946679 -2.6175,-0.603454 -0.93589,0.308872 -1.28344,0.01176 -0.57109,-0.488198 0.73737,-0.517517 1.73992,-0.793744 2.62529,-0.723327 l 0.78379,0.06234 v -1.154837 c 0,-1.9536 0.43531,-3.235481 1.62459,-4.784021 l 0.49509,-0.64465 -0.82329,0.247775 c -1.16001,0.34911 -1.90712,0.305035 -3.32487,-0.19615 -0.67909,-0.240065 -1.37757,-0.436829 -1.55216,-0.437251 -0.93987,-0.0023 -1.88422,1.115947 -1.62696,1.926505 0.0919,0.2896 0.0401,0.365781 -0.24857,0.365781 -0.31799,0 -0.36417,-0.10724 -0.36079,-0.837847 0.008,-1.764739 1.26159,-3.245314 2.9652,-3.502548 0.69188,-0.10447 1.11889,-0.02104 2.67537,0.522706 1.01864,0.355859 2.09021,0.6443 2.38125,0.640979 0.57522,-0.0066 1.93579,-0.565296 2.40038,-0.985742 0.25689,-0.232486 0.30169,-0.232196 0.39176,0.0025 0.0645,0.168072 -0.24783,0.623046 -0.8537,1.243614 -1.52769,1.564759 -1.67702,2.39377 -1.29363,7.181478 0.32769,4.09213 -0.0795,5.973279 -1.85987,8.591819 -0.35553,0.522909 -0.61318,0.98398 -0.57256,1.024603 0.0406,0.04062 0.70687,-0.545963 1.48055,-1.303522 2.55715,-2.50388 3.20104,-4.313245 2.93373,-8.243956 -0.26178,-3.849307 -0.20555,-5.370355 0.22869,-6.186202 0.77057,-1.447744 2.1078,-2.259883 4.08624,-2.481698 0.86968,-0.0975 1.15556,-0.07069 1.27611,0.119689 0.25154,0.397213 0.19582,0.459233 -0.51464,0.572841 -0.93855,0.15008 -1.82055,0.78595 -2.21927,1.599974 -0.32144,0.656226 -0.3264,0.837539 -0.10713,3.914807 0.12646,1.774691 0.1759,3.686419 0.10986,4.248284 -0.23031,1.959597 -1.42476,3.718466 -4.16361,6.131067 -0.88491,0.779507 -0.92365,0.843073 -0.44097,0.723599 3.07761,-0.761769 5.68667,-0.53369 8.01048,0.700263 l 1.15401,0.612779 0.73826,-0.530178 c 0.85264,-0.612322 0.87377,-0.617879 1.00905,-0.26535 0.0711,0.185175 -0.45777,0.685989 -1.75824,1.66509 l -1.85986,1.400263 -1.08921,-0.587494 c -1.96943,-1.062262 -2.7682,-1.244421 -5.41074,-1.233907 -2.64387,0.01052 -3.60704,0.206747 -6.02944,1.228386 -0.80101,0.337823 -1.47014,0.614223 -1.48696,0.614223 -0.0168,0 -0.0814,-0.132335 -0.14343,-0.294079 z m 27.16081,-0.09795 c -0.67516,-0.963918 -0.19405,-2.186517 1.99257,-5.063545 l 1.66627,-2.192375 -0.86428,-0.716537 c -1.38569,-1.148807 -2.02261,-1.888687 -2.51745,-2.924406 -0.39131,-0.819037 -0.46219,-1.203661 -0.45505,-2.469445 0.0187,-3.307824 1.86148,-5.56975 5.54779,-6.809551 0.69459,-0.233606 1.4962,-0.327406 2.82223,-0.33024 2.17236,-0.0046 3.67831,0.405442 5.48964,1.494882 l 1.12038,0.673859 0.71896,-0.662719 c 0.39544,-0.364495 1.0987,-0.885255 1.56281,-1.157244 0.69239,-0.405764 0.87195,-0.450141 1.00041,-0.247242 0.24064,0.380084 0.20222,0.452393 -0.3653,0.687467 -0.86317,0.357538 -1.72328,1.448943 -1.85991,2.360076 -0.12417,0.827973 0.20064,12.777786 0.37695,13.86849 0.10705,0.662236 0.51391,1.234722 0.8775,1.234722 0.12304,0 0.45946,-0.19837 0.7476,-0.440822 0.42041,-0.353757 0.54341,-0.389941 0.62274,-0.18321 0.0644,0.16784 -0.46688,0.782293 -1.52459,1.76325 -0.89289,0.828101 -1.69342,1.505858 -1.77894,1.506127 -0.0855,2.68e-4 -0.49191,-0.336856 -0.90307,-0.749165 -0.72207,-0.724097 -1.14629,-1.820715 -1.14629,-2.963196 0,-0.390501 -0.43945,-0.464187 -0.6527,-0.109443 -0.0776,0.129059 -1.21218,1.037221 -2.52133,2.018138 l -2.38027,1.783485 -0.88292,-0.531207 c -3.16566,-1.904604 -5.47973,-2.608329 -6.00926,-1.827462 -0.20893,0.308094 -0.19124,0.451754 0.1347,1.093565 0.31085,0.61208 0.3363,0.785801 0.1483,1.012324 -0.31653,0.381399 -0.64554,0.341076 -0.96749,-0.118576 z m 11.53378,-3.431645 1.59719,-1.196342 v -1.194161 -1.19416 l -4.45382,0.0083 -4.45382,0.0083 -0.59046,0.829585 c -0.32476,0.456271 -0.60257,0.902811 -0.61736,0.992311 -0.0341,0.206186 6.42609,3.106153 6.71028,3.012242 0.11595,-0.03831 0.92954,-0.608012 1.80799,-1.266 z m -5.04447,-7.495595 c 1.22756,-1.617437 2.23193,-2.978037 2.23193,-3.023556 0,-0.170958 -1.43923,-0.650234 -1.9526,-0.650234 -0.67371,0 -1.44168,0.392006 -1.89367,0.966615 -0.65179,0.828617 -0.78486,0.335284 -0.2123,-0.787034 0.82609,-1.619274 2.88081,-2.34336 4.76413,-1.678886 0.41245,0.145521 0.76882,0.264583 0.79194,0.264583 0.074,0 0.97195,-1.337784 0.97195,-1.448108 0,-0.216366 -1.71299,-0.690603 -2.85693,-0.790936 -3.81429,-0.334542 -7.36368,1.950573 -7.67215,4.939368 -0.11571,1.121127 0.13512,2.012954 0.86775,3.085263 0.5656,0.827833 2.44116,2.398174 2.61802,2.191969 0.0605,-0.07054 1.11436,-1.451608 2.34193,-3.069044 z m 6.64166,-1.459952 v -3.606995 l -0.62217,-0.474547 c -0.34219,-0.261 -0.64629,-0.443633 -0.67578,-0.405851 -0.22242,0.284934 -5.26561,6.912491 -5.65604,7.43293 l -0.49622,0.661458 h 3.7251 3.72511 z m 21.25486,12.572793 c -1.27157,-0.240731 -3.24887,-1.243912 -4.28118,-2.172047 -3.22393,-2.898584 -3.09321,-7.829938 0.3022,-11.400934 0.63621,-0.669117 2.77467,-2.51993 4.75211,-4.112919 l 3.59536,-2.896343 0.99075,0.452594 c 2.96425,1.354123 5.12275,1.769621 6.40422,1.232773 0.55133,-0.230966 0.68186,-0.235491 0.85276,-0.02957 0.1627,0.196039 -0.21971,0.555552 -1.97388,1.855689 -1.19662,0.886899 -2.35427,1.697014 -2.57255,1.800257 -0.53145,0.251364 -0.50036,0.455439 0.0882,0.578879 2.29609,0.481568 3.01105,0.793313 4.12269,1.797613 0.39122,0.353444 0.92189,1.044537 1.17927,1.535763 0.39163,0.747452 0.46849,1.123312 0.47123,2.304248 0.003,1.453163 -0.14589,1.902374 -1.33142,4.007093 -0.51736,0.918487 -2.25146,2.475059 -3.59337,3.225499 -3.07318,1.718617 -6.20442,2.351863 -9.00638,1.8214 z m 3.61597,-6.326171 v -5.297872 l -0.39688,0.207604 c -1.3379,0.699851 -1.36681,0.752775 -1.36942,2.50675 -0.001,0.890772 -0.0465,1.778336 -0.10039,1.972363 -0.0539,0.194028 -0.42984,0.608747 -0.83544,0.921598 -0.4056,0.31285 -1.17402,0.967432 -1.70759,1.454627 l -0.97014,0.885808 0.79375,0.725357 c 1.18969,1.087181 2.85579,1.844388 4.18923,1.903919 l 0.39688,0.01772 z m 2.15208,4.923 c 0.5141,-0.109166 1.40117,-0.432877 1.97127,-0.719358 1.0644,-0.534867 2.81551,-2.017867 2.6668,-2.258485 -0.0458,-0.07413 -0.59889,-0.274349 -1.22906,-0.444927 -1.35546,-0.366906 -2.88255,-0.269938 -4.07821,0.258959 l -0.77733,0.343847 v 1.509224 c 0,1.695567 -0.0694,1.632647 1.44653,1.31074 z m -7.01526,-3.945251 c 0.23065,-0.486071 0.27707,-1.384638 0.27707,-5.363825 0,-2.818818 -0.0671,-4.779939 -0.16355,-4.779939 -0.25752,0 -1.1795,1.198794 -1.75222,2.278316 -1.28808,2.427926 -1.18138,5.807216 0.26109,8.268606 0.42754,0.729537 0.46725,0.753844 0.77557,0.474813 0.17873,-0.161748 0.44965,-0.556835 0.60204,-0.877971 z m 8.53359,-0.391645 c 0.77393,-0.06964 1.29897,0.0088 2.29203,0.342472 l 1.28814,0.4328 0.25055,-0.599648 c 0.1378,-0.329806 0.30241,-0.990595 0.3658,-1.468419 l 0.11524,-0.86877 -1.12477,0.570348 c -0.99188,0.502964 -1.29148,0.569987 -2.53587,0.567294 -1.42582,-0.0031 -2.44122,-0.341778 -3.3073,-1.10317 -0.29139,-0.256169 -0.30868,-0.176524 -0.30868,1.421904 v 1.693274 l 0.98048,-0.448877 c 0.53926,-0.246883 1.43223,-0.489526 1.98438,-0.539208 z m 3.16466,-2.176358 c 1.0488,-0.442664 1.12547,-0.672502 0.58064,-1.740473 -1.02495,-2.009067 -3.73686,-3.11663 -6.05497,-2.472895 l -0.66772,0.185427 0.0504,1.700366 0.0504,1.700367 0.59219,0.345378 c 0.32571,0.189958 0.88134,0.453924 1.23473,0.58659 0.91148,0.342182 3.04759,0.187711 4.2144,-0.30476 z m -5.09672,-6.078309 3.06127,-2.259705 -2.09113,-0.57736 c -1.15012,-0.317548 -2.55685,-0.740282 -3.12606,-0.93941 -0.56921,-0.199127 -1.105,-0.318749 -1.19063,-0.265826 -0.0856,0.05292 -0.15569,1.569696 -0.15569,3.370607 0,2.593374 0.0459,3.238715 0.22048,3.102891 0.12127,-0.09432 1.59806,-1.188359 3.28176,-2.431197 z"
           id="path12-1-0" />
      </g>
      <path
         style="fill:#1c1c24;fill-opacity:1;stroke:#1c1c24;stroke-width:0;stroke-opacity:1"
         d="m 100.99128,175.71541 c 0,0 -0.0762,-0.0952 -0.16867,-0.44272 -0.15419,-0.5795 -0.17692,-0.67705 -0.17609,-2.95035 7.9e-4,-2.23833 0.028,-2.86686 0.13518,-4.93464 0.0702,-1.35512 0.1601,-3.34376 0.20825,-4.48621 0.0499,-1.18342 0.0618,-1.2425 0.10577,-1.85627 0.0177,-0.24782 0.046,-0.65828 0.0589,-0.91301 0.0176,-0.3478 0.0167,-0.35814 0.0384,-0.66149 0.0309,-0.43214 0.0955,-0.74748 0.0977,0.23791 2.2e-4,0.0997 0.0106,0.54174 0.0289,1.19358 0.004,0.14101 0.0192,0.76347 0.0325,1.39103 0.0572,2.68564 0.12448,4.635 0.22219,6.33639 0.0458,0.79699 0.0724,1.12161 0.15758,2.05881 0.10176,1.11933 0.11674,1.23973 0.11634,1.71596 -5.3e-4,0.56074 -0.0478,1.0634 -0.14939,1.748 -0.13821,0.93172 -0.29271,1.71222 -0.50159,1.71455 -0.082,7.9e-4 -0.18014,-0.11647 -0.18014,-0.11647 z"
         id="path17"
         sodipodi:nodetypes="ssssssssssssscssss" />
    </g>
  </g>
</svg>
